<?xml version="1.0" standalone="no"?>
<!DOCTYPE svg PUBLIC "-//W3C//DTD SVG 20010904//EN"
 "http://www.w3.org/TR/2001/REC-SVG-20010904/DTD/svg10.dtd">
<svg version="1.0" xmlns="http://www.w3.org/2000/svg"
 width="260.000000pt" height="260.000000pt" viewBox="0 0 260.000000 260.000000"
 preserveAspectRatio="xMidYMid meet">
<metadata>
Created by potrace 1.14, written by Peter Selinger 2001-2017
</metadata>
<g transform="translate(0.000000,260.000000) scale(0.100000,-0.100000)"
fill="#000000" stroke="none">
<path d="M1155 2330 c-19 -7 -20 -13 -14 -79 3 -39 8 -74 11 -77 3 -2 24 -2
47 2 49 8 57 34 11 34 -36 0 -42 27 -8 32 13 2 24 11 26 22 3 15 -1 18 -22 14
-34 -7 -35 18 -1 26 35 9 33 36 -2 35 -16 0 -37 -4 -48 -9z"/>
<path d="M778 2202 c-51 -29 -57 -48 -16 -45 21 1 29 -7 48 -48 16 -32 30 -49
42 -49 25 0 23 19 -8 74 -25 44 -25 48 -9 60 10 7 15 18 11 24 -10 16 -14 15
-68 -16z"/>
<path d="M1797 2213 c-4 -3 -7 -23 -7 -42 0 -20 -9 -53 -20 -73 -17 -33 -18
-38 -4 -49 13 -11 17 -10 25 1 18 31 25 38 73 65 45 26 47 29 30 42 -15 11
-21 10 -41 -2 -22 -15 -23 -14 -23 14 0 29 -21 57 -33 44z"/>
<path d="M1200 1888 c0 -18 7 -60 14 -93 13 -52 13 -62 0 -76 -18 -20 -18 -50
1 -75 10 -13 14 -45 15 -106 l0 -88 -113 0 c-101 0 -116 -2 -132 -20 -13 -15
-16 -29 -11 -59 3 -23 2 -42 -4 -46 -6 -4 -25 -34 -43 -68 -31 -59 -32 -67
-32 -177 0 -110 2 -119 32 -181 42 -84 108 -150 191 -191 63 -31 72 -33 177
-33 100 0 116 3 170 28 80 37 166 123 202 201 26 56 28 71 28 176 0 110 -2
118 -32 177 -18 34 -37 64 -42 67 -5 3 -7 24 -4 46 4 30 1 45 -12 60 -16 18
-31 20 -132 20 l-113 0 0 89 c0 66 4 92 15 101 19 16 19 64 1 83 -12 12 -12
22 0 73 7 32 14 74 14 92 l0 32 -95 0 -95 0 0 -32z m140 -25 c0 -10 -6 -40
-13 -68 -10 -37 -18 -51 -33 -53 -17 -2 -22 6 -32 56 -17 83 -18 82 33 82 36
0 45 -3 45 -17z m-2 -180 c2 -9 -10 -13 -42 -13 -43 0 -55 7 -39 24 12 11 76
2 81 -11z m-28 -78 c0 -8 -7 -15 -15 -15 -8 0 -15 7 -15 15 0 8 7 15 15 15 8
0 15 -7 15 -15z m0 -105 c0 -38 -4 -50 -15 -50 -11 0 -15 12 -15 50 0 38 4 50
15 50 11 0 15 -12 15 -50z m270 -110 c0 -6 -94 -11 -247 -12 l-248 -3 -3 -22
-3 -23 239 0 240 0 31 -42 c17 -23 31 -46 31 -50 0 -4 -146 -8 -325 -8 -179 0
-325 3 -325 8 0 4 18 31 40 60 46 60 48 68 20 77 -60 19 2 25 265 25 180 0
285 -4 285 -10z m74 -272 c12 -75 -12 -174 -59 -245 -140 -210 -461 -210 -600
0 -44 67 -69 163 -61 235 4 30 9 59 12 63 3 5 161 8 352 7 l347 -3 9 -57z"/>
<path d="M1117 1154 c-15 -15 -7 -45 11 -42 9 2 17 12 17 22 0 20 -16 31 -28
20z"/>
<path d="M974 995 c-4 -9 -2 -21 4 -27 15 -15 44 -1 40 19 -4 23 -36 29 -44 8z"/>
<path d="M1053 954 c-8 -21 13 -42 28 -27 13 13 5 43 -11 43 -6 0 -13 -7 -17
-16z"/>
<path d="M446 1894 c-4 -11 9 -41 35 -80 44 -68 75 -85 66 -37 -7 40 8 65 37
57 16 -4 25 0 30 12 8 21 14 17 -63 43 -78 25 -97 26 -105 5z m75 -47 c-1 -12
-15 -9 -19 4 -3 6 1 10 8 8 6 -3 11 -8 11 -12z"/>
<path d="M2180 1673 c-31 -12 -50 -37 -50 -68 0 -41 21 -70 45 -62 14 6 15 10
5 22 -19 23 -8 57 23 68 34 11 57 -5 57 -40 0 -36 24 -23 28 15 5 54 -49 87
-108 65z"/>
<path d="M274 1446 c-10 -25 3 -45 41 -63 19 -9 35 -20 35 -23 0 -4 -19 -11
-42 -16 -39 -8 -43 -12 -43 -39 0 -29 1 -30 64 -38 72 -9 91 -5 91 18 0 11
-11 15 -42 15 -47 0 -43 10 10 25 51 15 51 36 0 62 l-43 22 43 0 c31 1 42 5
42 16 0 19 -8 22 -88 30 -51 5 -63 3 -68 -9z"/>
<path d="M2210 1277 c-30 -15 -45 -62 -31 -99 14 -38 81 -58 119 -37 47 26 56
106 14 128 -33 17 -77 21 -102 8z m88 -69 c2 -19 -2 -28 -16 -32 -28 -9 -72
10 -72 32 0 27 10 33 50 30 30 -3 35 -7 38 -30z"/>
<path d="M2047 841 c-35 -60 -11 -120 55 -136 23 -6 34 -1 63 28 19 19 35 41
35 49 -1 14 -104 88 -123 88 -7 0 -20 -13 -30 -29z m77 -46 c25 -20 28 -26 17
-39 -18 -21 -25 -20 -56 7 -18 15 -24 28 -20 40 9 23 24 21 59 -8z"/>
<path d="M520 761 c0 -5 9 -19 19 -32 16 -19 22 -21 32 -12 10 10 9 17 -6 33
-19 20 -45 27 -45 11z"/>
<path d="M1792 577 c-8 -10 -1 -29 30 -75 39 -59 59 -74 73 -52 6 9 -74 139
-86 140 -4 0 -11 -6 -17 -13z"/>
<path d="M1037 440 c-27 -22 -43 -74 -33 -108 14 -42 91 -55 124 -19 46 49 40
111 -14 133 -43 18 -46 18 -77 -6z m72 -34 c13 -15 -1 -65 -22 -78 -15 -9 -47
9 -47 27 0 52 42 84 69 51z"/>
<path d="M1463 443 c-14 -5 -16 -34 -7 -70 6 -23 27 -29 58 -17 23 9 20 34 -5
34 -12 0 -19 5 -17 13 8 22 36 19 54 -7 15 -24 15 -28 -1 -52 -13 -20 -23 -25
-46 -22 -23 4 -29 1 -29 -14 0 -25 69 -25 101 1 30 24 33 89 5 120 -18 20 -80
28 -113 14z"/>
</g>
</svg>
